<svg id="Layer_1" data-name="Layer 1" xmlns="http://www.w3.org/2000/svg" xmlns:xlink="http://www.w3.org/1999/xlink" viewBox="0 0 640 640"><defs><style>.cls-1{fill:#f2f2f2;}.cls-2{fill:url(#linear-gradient);}.cls-3{fill:#33d8f0;}.cls-4{fill:none;stroke:#000;stroke-miterlimit:10;stroke-width:4px;}</style><linearGradient id="linear-gradient" x1="320.3" y1="581.86" x2="320.3" y2="638.53" gradientTransform="matrix(1, 0, 0, -1, 0, 642)" gradientUnits="userSpaceOnUse"><stop offset="0"/><stop offset="1" stop-color="#ababab"/></linearGradient></defs><title>cozmo_playing</title><g id="head"><path class="cls-1" d="M628,152.71c-8.21-94.46-77-114.62-305-115h-4c-229,.36-295.86,20.52-304.07,115C6.65,248,2.88,425.24,15.11,516S155,630.86,322,630.86V632h0v-1.14c174,0,294.13-24.33,306.35-114.94S636.28,248,628,152.71Z"/><path d="M627.81,152.73l-.62-5.61-.31-2.81c-.13-.93-.29-1.86-.44-2.78l-.9-5.56-1.21-5.5a102.77,102.77,0,0,0-7.26-21.28c-.41-.85-.73-1.73-1.21-2.54l-1.37-2.46a49.11,49.11,0,0,0-2.87-4.84c-1.06-1.55-2-3.14-3.17-4.65l-3.54-4.37A94,94,0,0,0,588.15,75.4c-1.56-1-3.17-2-4.75-3-.8-.49-1.58-1-2.39-1.48l-2.48-1.33c-1.66-.87-3.29-1.8-5-2.63l-5.12-2.34c-.86-.38-1.7-.8-2.57-1.15l-2.63-1-5.25-2-5.35-1.76c-1.79-.56-3.55-1.22-5.37-1.69q-10.82-3.12-21.87-5.38c-7.36-1.53-14.77-2.76-22.2-3.87-3.72-.5-7.44-1-11.17-1.51L480.8,45c-7.48-.72-15-1.46-22.47-2s-15-1-22.51-1.43L424.56,41c-3.76-.18-7.51-.33-11.27-.43L402,40.24,390.74,40c-7.52-.19-15-.26-22.56-.36s-15-.13-22.57-.2H321V37.73h0l1.86,1.67h-4.51L320,37.72h0V39.4h-1.56c-22.44.11-44.82.35-67.24,1S206.4,42,184.06,43.68s-44.62,4.19-66.52,8.67a243.35,243.35,0,0,0-32.28,8.72A133.23,133.23,0,0,0,55.43,75.71,84,84,0,0,0,32.18,99.1,73.57,73.57,0,0,0,28,106.24,37.06,37.06,0,0,0,26.13,110l-1.72,3.79c-.52,1.28-1,2.6-1.45,3.9s-1,2.59-1.39,3.93l-1.16,4c-.38,1.34-.81,2.66-1.08,4l-.91,4.08-.45,2c-.14.68-.23,1.37-.35,2.06L17,141.95,16.62,144c-.1.69-.16,1.39-.25,2.08-.29,2.78-.68,5.54-.9,8.33l-.71,8.39-.71,8.39-.6,8.39c-.37,5.6-.82,11.19-1.11,16.79-1.42,22.4-2.36,44.83-3.19,67.26S7.91,308.52,7.76,331s-.1,44.89.4,67.33c.16,11.22.63,22.43,1,33.65.22,5.61.55,11.21.82,16.81l.44,8.4.58,8.39.58,8.39.29,4.2.38,4.19c.53,5.58,1,11.17,1.57,16.74l2,16.68.66,4.13.83,4,1,4,1.2,4a88.08,88.08,0,0,0,16,28.89,112.54,112.54,0,0,0,24.83,22,174.45,174.45,0,0,0,29.51,15.5q7.72,3.21,15.65,5.9t16,4.91c21.54,6,43.64,9.84,65.83,12.69s44.57,4.55,67,5.63,44.81,1.46,67.23,1.43h2V632l-2-2H322v4h-2.46v-5.19h2q22.41,0,44.8-.67T411.07,626c14.89-1,29.75-2.35,44.54-4.18s29.51-4.18,44.08-7.22a323.77,323.77,0,0,0,42.92-11.87,181.94,181.94,0,0,0,39.74-19.47c12.21-8.2,23.12-18.47,30.92-30.9a95.59,95.59,0,0,0,5.25-9.64,92.7,92.7,0,0,0,6.79-20.87c.77-3.61,1.21-7.21,1.65-11l1.34-11.14c.46-3.71.71-7.42,1.08-11.13l1-11.13.78-11.17c.25-3.72.56-7.45.77-11.17l.59-11.19c.19-3.73.42-7.46.57-11.19l.42-11.2.42-11.2.28-11.21.28-11.21c.09-3.74.11-7.47.17-11.21.25-15,.26-29.9.24-44.85l-.17-22.43L634.37,287l-.55-22.42c-.2-7.47-.51-14.94-.76-22.42-.57-14.94-1.24-29.88-2.13-44.81-.38-7.47-1-14.92-1.43-22.38S628.38,160.18,627.81,152.73Zm.4,0c.59,7.46,1.25,14.91,1.77,22.37s1.09,14.92,1.48,22.39q1.35,22.39,2.35,44.81c.3,7.47.66,14.94.91,22.42l.77,22.42.6,22.43L636.5,332c.19,15,.33,29.92.26,44.88V388.1l-.15,11.22-.15,11.22-.29,11.22L635.88,433c-.11,3.74-.3,7.48-.44,11.22L635,455.37c-.16,3.74-.43,7.48-.64,11.21l-.69,11.21-1,11.21c-.34,3.73-.57,7.49-1,11.2l-1.27,11.14a107.44,107.44,0,0,1-4.41,22.3,96.24,96.24,0,0,1-4.1,10.67,99.3,99.3,0,0,1-5.4,10.09c-8,13-19.31,23.79-31.88,32.24a186,186,0,0,1-40.58,20,328,328,0,0,1-43.45,12.14c-14.7,3.12-29.55,5.45-44.44,7.29s-29.83,3.18-44.78,4.18c-29.91,2-59.87,2.6-89.81,2.58l2-2V632l-2-2H322v4h-2.4v-3.17l2,2c-22.48,0-45-.51-67.42-1.63s-44.9-2.94-67.23-5.86a467.48,467.48,0,0,1-66.26-13.12q-8.14-2.32-16.16-5t-15.82-6.06a174.64,174.64,0,0,1-29.93-16,115.31,115.31,0,0,1-25.25-22.7,90.62,90.62,0,0,1-16.23-29.8l-1.19-4.09-1-4.14-.82-4.2L13.65,516l-1.9-16.76c-.54-5.59-1-11.2-1.46-16.8l-.36-4.2L9.67,474l-.53-8.41-.53-8.41-.38-8.42c-.23-5.57-.52-11.18-.7-16.79-.33-11.23-.68-22.45-.84-33.68-.45-22.46-.43-44.91-.23-67.37.14-11.23.27-22.45.56-33.68s.54-22.45.85-33.67c.76-22.44,1.62-44.89,3-67.31.28-5.61.71-11.21,1.06-16.82l.54-8.41.63-8.4.63-8.4c.2-2.81.56-5.61.84-8.42.08-.7.14-1.4.23-2.1l.32-2.09.65-4.18c.12-.7.2-1.4.34-2.09l.44-2.07.88-4.15c.26-1.39.69-2.74,1.06-4.11L19.6,121c.39-1.36.92-2.68,1.38-4s.93-2.68,1.45-4l1.72-3.89A38.52,38.52,0,0,1,26,105.22a75.81,75.81,0,0,1,4.28-7.37A86.33,86.33,0,0,1,54,73.59,135.94,135.94,0,0,1,84.3,58.37a246.4,246.4,0,0,1,32.61-9.1c22.07-4.74,44.49-7.23,66.9-9.1s44.89-2.76,67.35-3.38,45-.76,67.45-.76L317,37.73h0V36h8v1.66h0L323.18,36l22.52.19c7.53.12,15,.19,22.56.36s15,.34,22.57.61l11.28.38L413.4,38q5.65.22,11.28.56l11.28.63c7.52.53,15,1,22.54,1.68s15,1.41,22.5,2.21l11.22,1.4c3.74.5,7.46,1.09,11.19,1.64,7.44,1.19,14.87,2.5,22.24,4.12S540.34,53.8,547.57,56c1.82.49,3.59,1.17,5.38,1.75l5.36,1.83,5.26,2.09,2.63,1c.88.35,1.72.78,2.58,1.17l5.14,2.38c1.69.84,3.33,1.79,5,2.67l2.49,1.35c.82.47,1.6,1,2.4,1.51,1.58,1,3.2,2,4.76,3.07A94.65,94.65,0,0,1,605.33,90l3.54,4.43C610,95.91,611,97.52,612,99.07a49.52,49.52,0,0,1,2.88,4.87l1.37,2.48c.47.82.8,1.71,1.21,2.56a103.23,103.23,0,0,1,7.25,21.38l1.2,5.53.89,5.59c.14.93.31,1.86.44,2.79l.31,2.81Z"/><path d="M578.3,182.53c-6.86-78.95-63.3-95.8-254.3-96.1h-5c-191,.3-247,17.15-253.89,96.1-6.92,79.67-10,227.77.28,303.59s64.61,96,256.61,96V582h0v.14c193,0,246.1-20.33,256.32-96.06S585.23,262.2,578.3,182.53Z"/><path d="M578.3,182.53c-6.86-78.95-63.3-95.8-254.3-96.1h-5c-191,.3-247,17.15-253.89,96.1-6.92,79.67-10,227.77.28,303.59s64.61,96,256.61,96V582h0v.14c193,0,246.1-20.33,256.32-96.06S585.23,262.2,578.3,182.53Z"/></g><g id="Layer_4" data-name="Layer 4"><path class="cls-2" d="M125,32.3S187.58,3.47,319.31,3.47,514.66,32.3,514.66,32.3l9,18.89s-19.88,9-30.82,9S428.17,38.27,319.31,38.27,164.72,60.14,149.8,60.14s-32.81-6-32.81-6Z"/></g><g id="play"><circle class="cls-3" cx="324.15" cy="267.71" r="132.61"/><polygon points="274.12 353.39 274.12 186.9 410.59 267.71 274.12 353.39"/></g><g id="monitor_grid" data-name="monitor grid"><line class="cls-4" x1="113.52" y1="142.13" x2="534.79" y2="142.13"/><line class="cls-4" x1="113.52" y1="151.09" x2="534.79" y2="151.09"/><line class="cls-4" x1="113.52" y1="160.04" x2="534.79" y2="160.04"/><line class="cls-4" x1="113.52" y1="168.99" x2="534.79" y2="168.99"/><line class="cls-4" x1="113.52" y1="177.94" x2="534.79" y2="177.94"/><line class="cls-4" x1="113.52" y1="186.9" x2="534.79" y2="186.9"/><line class="cls-4" x1="113.52" y1="195.85" x2="534.79" y2="195.85"/><line class="cls-4" x1="113.52" y1="204.8" x2="534.79" y2="204.8"/><line class="cls-4" x1="113.52" y1="213.76" x2="534.79" y2="213.76"/><line class="cls-4" x1="113.52" y1="222.71" x2="534.79" y2="222.71"/><line class="cls-4" x1="113.52" y1="231.66" x2="534.79" y2="231.66"/><line class="cls-4" x1="113.52" y1="240.61" x2="534.79" y2="240.61"/><line class="cls-4" x1="113.52" y1="249.57" x2="534.79" y2="249.57"/><line class="cls-4" x1="113.52" y1="258.52" x2="534.79" y2="258.52"/><line class="cls-4" x1="113.52" y1="267.47" x2="534.79" y2="267.47"/><line class="cls-4" x1="113.52" y1="276.42" x2="534.79" y2="276.42"/><line class="cls-4" x1="113.52" y1="276.88" x2="534.79" y2="276.88"/><line class="cls-4" x1="113.52" y1="285.83" x2="534.79" y2="285.83"/><line class="cls-4" x1="113.52" y1="294.78" x2="534.79" y2="294.78"/><line class="cls-4" x1="113.52" y1="303.73" x2="534.79" y2="303.73"/><line class="cls-4" x1="113.52" y1="312.69" x2="534.79" y2="312.69"/><line class="cls-4" x1="113.52" y1="321.64" x2="534.79" y2="321.64"/><line class="cls-4" x1="113.52" y1="330.59" x2="534.79" y2="330.59"/><line class="cls-4" x1="113.52" y1="339.55" x2="534.79" y2="339.55"/><line class="cls-4" x1="113.52" y1="348.5" x2="534.79" y2="348.5"/><line class="cls-4" x1="113.52" y1="357.45" x2="534.79" y2="357.45"/><line class="cls-4" x1="113.52" y1="366.4" x2="534.79" y2="366.4"/><line class="cls-4" x1="113.52" y1="375.36" x2="534.79" y2="375.36"/><line class="cls-4" x1="113.52" y1="384.31" x2="534.79" y2="384.31"/><line class="cls-4" x1="113.52" y1="393.26" x2="534.79" y2="393.26"/><line class="cls-4" x1="113.52" y1="402.21" x2="534.79" y2="402.21"/><line class="cls-4" x1="113.52" y1="411.17" x2="534.79" y2="411.17"/><line class="cls-4" x1="113.52" y1="411.62" x2="534.79" y2="411.62"/><line class="cls-4" x1="113.52" y1="420.57" x2="534.79" y2="420.57"/><line class="cls-4" x1="113.52" y1="429.53" x2="534.79" y2="429.53"/><line class="cls-4" x1="113.52" y1="438.48" x2="534.79" y2="438.48"/><line class="cls-4" x1="113.52" y1="447.43" x2="534.79" y2="447.43"/><line class="cls-4" x1="113.52" y1="456.38" x2="534.79" y2="456.38"/><line class="cls-4" x1="113.52" y1="465.34" x2="534.79" y2="465.34"/><line class="cls-4" x1="113.52" y1="474.29" x2="534.79" y2="474.29"/><line class="cls-4" x1="113.52" y1="483.24" x2="534.79" y2="483.24"/><line class="cls-4" x1="113.52" y1="492.19" x2="534.79" y2="492.19"/><line class="cls-4" x1="113.52" y1="501.15" x2="534.79" y2="501.15"/><line class="cls-4" x1="113.52" y1="510.1" x2="534.79" y2="510.1"/><line class="cls-4" x1="113.52" y1="519.05" x2="534.79" y2="519.05"/><line class="cls-4" x1="113.52" y1="528.01" x2="534.79" y2="528.01"/><line class="cls-4" x1="113.52" y1="536.96" x2="534.79" y2="536.96"/><line class="cls-4" x1="113.52" y1="545.91" x2="534.79" y2="545.91"/></g></svg>