<svg id="Layer_2" data-name="Layer 2" xmlns="http://www.w3.org/2000/svg" viewBox="0 0 560.01 113.19"><defs><style>.cls-1{fill:#fff;}</style></defs><title>cozmo-logo</title><path class="cls-1" d="M167,1.08a56.06,56.06,0,1,0,56.06,56.06A56.06,56.06,0,0,0,167,1.08Zm0,95.1a39,39,0,1,1,39-39A39,39,0,0,1,167,96.19Z"/><path class="cls-1" d="M498.36,1.08a56.06,56.06,0,1,0,56.06,56.06A56.06,56.06,0,0,0,498.36,1.08Zm0,95.1a39,39,0,1,1,39-39A39,39,0,0,1,498.36,96.19Z"/><path class="cls-1" d="M90.8,84.92A38.66,38.66,0,0,1,63.36,96.19,39,39,0,1,1,91.14,29.7a1.88,1.88,0,0,0,2.78.14l9.16-8.67a2.18,2.18,0,0,0,.08-3.5A56.06,56.06,0,1,0,103,96.8c1.59-1.59-.06-3.34-.06-3.34L95,84.93A2.63,2.63,0,0,0,90.8,84.92Z"/><path class="cls-1" d="M233,3.25h60.75S308.5,4,308.5,17.13c0,1.59.09,5,.09,6.38,0,6.63-5.34,11.25-5.34,11.25L247.63,90.38c-1,1-1.62,4.13,1,4.13h56.75c3.25,0,3.13,3.38,3.13,3.38v10.5s-.25,2.94-2.94,2.94H246.88s-11.5-1.44-16-11.69,2.63-18.87,2.63-18.87L291.38,23c.72-.72,1.09-3.12-1.5-3.12H233c-2.62,0-2.62-3.12-2.62-3.12V6.25S230.5,3.25,233,3.25Z"/><path class="cls-1" d="M321.75,108V21.5S321.75,0,339.63,0C356.25,0,359,17.75,359,17.75L372.13,64s1,4.59,4.06,4.59c3.56,0,4.56-5.09,4.56-5.09l13.38-46.87S398.38,0,413,0c16.67,0,17.63,17.13,17.63,21.75V108a2.88,2.88,0,0,1-2.75,3H417.25s-3-.12-3-2.62V24.88s-.12-3.62-2.25-3.62-3,3.5-3,3.5L393.88,75.88s-4.37,10.44-17.69,10.44a19.54,19.54,0,0,1-17.94-11.19L343.5,23.5S343.13,21,341,21s-2.62,3.75-2.62,3.75v83.13c0,3.38-2.75,3.13-2.75,3.13H324.38A2.7,2.7,0,0,1,321.75,108Z"/><path class="cls-1" d="M554.88,2a5,5,0,0,1,3.63,1.5A4.91,4.91,0,0,1,560,7.12a5,5,0,0,1-1.51,3.64,5.11,5.11,0,0,1-7.25,0,5,5,0,0,1-1.5-3.64,4.92,4.92,0,0,1,1.5-3.61A5,5,0,0,1,554.88,2Zm0,9.32a4.08,4.08,0,0,0,3-1.23,4,4,0,0,0,1.24-3,4,4,0,0,0-1.24-3,4.21,4.21,0,0,0-7.19,3,4.06,4.06,0,0,0,1.23,3A4,4,0,0,0,554.88,11.33Zm2.61-1.46h-1.22l-1.44-2.19h-.66V9.87h-1.08V4.33h1.74a2.26,2.26,0,0,1,1.44.44A1.43,1.43,0,0,1,556.83,6a1.49,1.49,0,0,1-1.06,1.46ZM554.16,6.8h.58q1,0,1-.81t-1-.76h-.63Z"/></svg>